<svg xmlns="http://www.w3.org/2000/svg" viewBox="0 0 1000 250" width="1000" height="250"><defs>
<filter id="glow" x="-100%" y="-100%" width="300%" height="300%"><feGaussianBlur stdDeviation="2.5" result="b"/><feMerge><feMergeNode in="b"/><feMergeNode in="SourceGraphic"/></feMerge></filter>
<filter id="soft" x="-50%" y="-50%" width="200%" height="200%"><feGaussianBlur stdDeviation="28"/></filter>
</defs><rect width="1000" height="250" fill="#0b1030"/>
<defs><linearGradient id="wave" x1="0" y1="0" x2="1" y2="0"><stop offset="0" stop-color="#5ce1ff" stop-opacity="0"/><stop offset=".5" stop-color="#5ce1ff" stop-opacity=".45"/><stop offset="1" stop-color="#5ce1ff" stop-opacity="0"/></linearGradient><clipPath id="grid"><rect x="36" y="66" width="928" height="156" rx="6"/></clipPath></defs>
<text x="40" y="40" font-family="'Segoe UI', Helvetica, Arial, sans-serif" font-size="13" font-weight="700" letter-spacing="6" fill="#5ce1ff">ACTIVITY PULSE</text>
<text x="960" y="40" text-anchor="end" font-family="'Segoe UI', Helvetica, Arial, sans-serif" font-size="12" font-weight="700" fill="#ffe9a8">44 contributions</text>
<rect x="40" y="70" width="16" height="16" rx="3" fill="#15215f"></rect><rect x="40" y="90" width="16" height="16" rx="3" fill="#15215f"></rect><rect x="40" y="110" width="16" height="16" rx="3" fill="#15215f"></rect><rect x="40" y="130" width="16" height="16" rx="3" fill="#15215f"></rect><rect x="40" y="150" width="16" height="16" rx="3" fill="#15215f"></rect><rect x="40" y="170" width="16" height="16" rx="3" fill="#15215f"></rect><rect x="40" y="190" width="16" height="16" rx="3" fill="#15215f"></rect><rect x="60" y="70" width="16" height="16" rx="3" fill="#15215f"></rect><rect x="60" y="90" width="16" height="16" rx="3" fill="#15215f"></rect><rect x="60" y="110" width="16" height="16" rx="3" fill="#15215f"></rect><rect x="60" y="130" width="16" height="16" rx="3" fill="#15215f"></rect><rect x="60" y="150" width="16" height="16" rx="3" fill="#15215f"></rect><rect x="60" y="170" width="16" height="16" rx="3" fill="#15215f"></rect><rect x="60" y="190" width="16" height="16" rx="3" fill="#15215f"></rect><rect x="80" y="70" width="16" height="16" rx="3" fill="#15215f"></rect><rect x="80" y="90" width="16" height="16" rx="3" fill="#15215f"></rect><rect x="80" y="110" width="16" height="16" rx="3" fill="#15215f"></rect><rect x="80" y="130" width="16" height="16" rx="3" fill="#15215f"></rect><rect x="80" y="150" width="16" height="16" rx="3" fill="#15215f"></rect><rect x="80" y="170" width="16" height="16" rx="3" fill="#15215f"></rect><rect x="80" y="190" width="16" height="16" rx="3" fill="#15215f"></rect><rect x="100" y="70" width="16" height="16" rx="3" fill="#15215f"></rect><rect x="100" y="90" width="16" height="16" rx="3" fill="#15215f"></rect><rect x="100" y="110" width="16" height="16" rx="3" fill="#15215f"></rect><rect x="100" y="130" width="16" height="16" rx="3" fill="#15215f"></rect><rect x="100" y="150" width="16" height="16" rx="3" fill="#15215f"></rect><rect x="100" y="170" width="16" height="16" rx="3" fill="#15215f"></rect><rect x="100" y="190" width="16" height="16" rx="3" fill="#15215f"></rect><rect x="120" y="70" width="16" height="16" rx="3" fill="#15215f"></rect><rect x="120" y="90" width="16" height="16" rx="3" fill="#15215f"></rect><rect x="120" y="110" width="16" height="16" rx="3" fill="#15215f"></rect><rect x="120" y="130" width="16" height="16" rx="3" fill="#15215f"></rect><rect x="120" y="150" width="16" height="16" rx="3" fill="#15215f"></rect><rect x="120" y="170" width="16" height="16" rx="3" fill="#15215f"></rect><rect x="120" y="190" width="16" height="16" rx="3" fill="#15215f"></rect><rect x="140" y="70" width="16" height="16" rx="3" fill="#15215f"></rect><rect x="140" y="90" width="16" height="16" rx="3" fill="#15215f"></rect><rect x="140" y="110" width="16" height="16" rx="3" fill="#15215f"></rect><rect x="140" y="130" width="16" height="16" rx="3" fill="#15215f"></rect><rect x="140" y="150" width="16" height="16" rx="3" fill="#15215f"></rect><rect x="140" y="170" width="16" height="16" rx="3" fill="#15215f"></rect><rect x="140" y="190" width="16" height="16" rx="3" fill="#15215f"></rect><rect x="160" y="70" width="16" height="16" rx="3" fill="#15215f"></rect><rect x="160" y="90" width="16" height="16" rx="3" fill="#15215f"></rect><rect x="160" y="110" width="16" height="16" rx="3" fill="#15215f"></rect><rect x="160" y="130" width="16" height="16" rx="3" fill="#15215f"></rect><rect x="160" y="150" width="16" height="16" rx="3" fill="#15215f"></rect><rect x="160" y="170" width="16" height="16" rx="3" fill="#15215f"></rect><rect x="160" y="190" width="16" height="16" rx="3" fill="#15215f"></rect><rect x="180" y="70" width="16" height="16" rx="3" fill="#15215f"></rect><rect x="180" y="90" width="16" height="16" rx="3" fill="#15215f"></rect><rect x="180" y="110" width="16" height="16" rx="3" fill="#15215f"></rect><rect x="180" y="130" width="16" height="16" rx="3" fill="#15215f"></rect><rect x="180" y="150" width="16" height="16" rx="3" fill="#15215f"></rect><rect x="180" y="170" width="16" height="16" rx="3" fill="#15215f"></rect><rect x="180" y="190" width="16" height="16" rx="3" fill="#15215f"></rect><rect x="200" y="70" width="16" height="16" rx="3" fill="#15215f"></rect><rect x="200" y="90" width="16" height="16" rx="3" fill="#15215f"></rect><rect x="200" y="110" width="16" height="16" rx="3" fill="#15215f"></rect><rect x="200" y="130" width="16" height="16" rx="3" fill="#15215f"></rect><rect x="200" y="150" width="16" height="16" rx="3" fill="#15215f"></rect><rect x="200" y="170" width="16" height="16" rx="3" fill="#15215f"></rect><rect x="200" y="190" width="16" height="16" rx="3" fill="#15215f"></rect><rect x="220" y="70" width="16" height="16" rx="3" fill="#15215f"></rect><rect x="220" y="90" width="16" height="16" rx="3" fill="#15215f"></rect><rect x="220" y="110" width="16" height="16" rx="3" fill="#15215f"></rect><rect x="220" y="130" width="16" height="16" rx="3" fill="#15215f"></rect><rect x="220" y="150" width="16" height="16" rx="3" fill="#15215f"></rect><rect x="220" y="170" width="16" height="16" rx="3" fill="#15215f"></rect><rect x="220" y="190" width="16" height="16" rx="3" fill="#15215f"></rect><rect x="240" y="70" width="16" height="16" rx="3" fill="#15215f"></rect><rect x="240" y="90" width="16" height="16" rx="3" fill="#15215f"></rect><rect x="240" y="110" width="16" height="16" rx="3" fill="#15215f"></rect><rect x="240" y="130" width="16" height="16" rx="3" fill="#15215f"></rect><rect x="240" y="150" width="16" height="16" rx="3" fill="#15215f"></rect><rect x="240" y="170" width="16" height="16" rx="3" fill="#15215f"></rect><rect x="240" y="190" width="16" height="16" rx="3" fill="#15215f"></rect><rect x="260" y="70" width="16" height="16" rx="3" fill="#15215f"></rect><rect x="260" y="90" width="16" height="16" rx="3" fill="#15215f"></rect><rect x="260" y="110" width="16" height="16" rx="3" fill="#15215f"></rect><rect x="260" y="130" width="16" height="16" rx="3" fill="#15215f"></rect><rect x="260" y="150" width="16" height="16" rx="3" fill="#15215f"></rect><rect x="260" y="170" width="16" height="16" rx="3" fill="#15215f"></rect><rect x="260" y="190" width="16" height="16" rx="3" fill="#15215f"></rect><rect x="280" y="70" width="16" height="16" rx="3" fill="#15215f"></rect><rect x="280" y="90" width="16" height="16" rx="3" fill="#15215f"></rect><rect x="280" y="110" width="16" height="16" rx="3" fill="#15215f"></rect><rect x="280" y="130" width="16" height="16" rx="3" fill="#15215f"></rect><rect x="280" y="150" width="16" height="16" rx="3" fill="#15215f"></rect><rect x="280" y="170" width="16" height="16" rx="3" fill="#15215f"></rect><rect x="280" y="190" width="16" height="16" rx="3" fill="#15215f"></rect><rect x="300" y="70" width="16" height="16" rx="3" fill="#15215f"></rect><rect x="300" y="90" width="16" height="16" rx="3" fill="#15215f"></rect><rect x="300" y="110" width="16" height="16" rx="3" fill="#15215f"></rect><rect x="300" y="130" width="16" height="16" rx="3" fill="#15215f"></rect><rect x="300" y="150" width="16" height="16" rx="3" fill="#15215f"></rect><rect x="300" y="170" width="16" height="16" rx="3" fill="#15215f"></rect><rect x="300" y="190" width="16" height="16" rx="3" fill="#15215f"></rect><rect x="320" y="70" width="16" height="16" rx="3" fill="#15215f"></rect><rect x="320" y="90" width="16" height="16" rx="3" fill="#15215f"></rect><rect x="320" y="110" width="16" height="16" rx="3" fill="#15215f"></rect><rect x="320" y="130" width="16" height="16" rx="3" fill="#15215f"></rect><rect x="320" y="150" width="16" height="16" rx="3" fill="#15215f"></rect><rect x="320" y="170" width="16" height="16" rx="3" fill="#15215f"></rect><rect x="320" y="190" width="16" height="16" rx="3" fill="#15215f"></rect><rect x="340" y="70" width="16" height="16" rx="3" fill="#15215f"></rect><rect x="340" y="90" width="16" height="16" rx="3" fill="#15215f"></rect><rect x="340" y="110" width="16" height="16" rx="3" fill="#15215f"></rect><rect x="340" y="130" width="16" height="16" rx="3" fill="#15215f"></rect><rect x="340" y="150" width="16" height="16" rx="3" fill="#15215f"></rect><rect x="340" y="170" width="16" height="16" rx="3" fill="#15215f"></rect><rect x="340" y="190" width="16" height="16" rx="3" fill="#15215f"></rect><rect x="360" y="70" width="16" height="16" rx="3" fill="#15215f"></rect><rect x="360" y="90" width="16" height="16" rx="3" fill="#15215f"></rect><rect x="360" y="110" width="16" height="16" rx="3" fill="#15215f"></rect><rect x="360" y="130" width="16" height="16" rx="3" fill="#15215f"></rect><rect x="360" y="150" width="16" height="16" rx="3" fill="#15215f"></rect><rect x="360" y="170" width="16" height="16" rx="3" fill="#15215f"></rect><rect x="360" y="190" width="16" height="16" rx="3" fill="#15215f"></rect><rect x="380" y="70" width="16" height="16" rx="3" fill="#15215f"></rect><rect x="380" y="90" width="16" height="16" rx="3" fill="#15215f"></rect><rect x="380" y="110" width="16" height="16" rx="3" fill="#15215f"></rect><rect x="380" y="130" width="16" height="16" rx="3" fill="#15215f"></rect><rect x="380" y="150" width="16" height="16" rx="3" fill="#15215f"></rect><rect x="380" y="170" width="16" height="16" rx="3" fill="#15215f"></rect><rect x="380" y="190" width="16" height="16" rx="3" fill="#15215f"></rect><rect x="400" y="70" width="16" height="16" rx="3" fill="#15215f"></rect><rect x="400" y="90" width="16" height="16" rx="3" fill="#15215f"></rect><rect x="400" y="110" width="16" height="16" rx="3" fill="#15215f"></rect><rect x="400" y="130" width="16" height="16" rx="3" fill="#15215f"></rect><rect x="400" y="150" width="16" height="16" rx="3" fill="#15215f"></rect><rect x="400" y="170" width="16" height="16" rx="3" fill="#15215f"></rect><rect x="400" y="190" width="16" height="16" rx="3" fill="#15215f"></rect><rect x="420" y="70" width="16" height="16" rx="3" fill="#15215f"></rect><rect x="420" y="90" width="16" height="16" rx="3" fill="#15215f"></rect><rect x="420" y="110" width="16" height="16" rx="3" fill="#15215f"></rect><rect x="420" y="130" width="16" height="16" rx="3" fill="#15215f"></rect><rect x="420" y="150" width="16" height="16" rx="3" fill="#15215f"></rect><rect x="420" y="170" width="16" height="16" rx="3" fill="#15215f"></rect><rect x="420" y="190" width="16" height="16" rx="3" fill="#15215f"></rect><rect x="440" y="70" width="16" height="16" rx="3" fill="#15215f"></rect><rect x="440" y="90" width="16" height="16" rx="3" fill="#15215f"></rect><rect x="440" y="110" width="16" height="16" rx="3" fill="#15215f"></rect><rect x="440" y="130" width="16" height="16" rx="3" fill="#15215f"></rect><rect x="440" y="150" width="16" height="16" rx="3" fill="#15215f"></rect><rect x="440" y="170" width="16" height="16" rx="3" fill="#15215f"></rect><rect x="440" y="190" width="16" height="16" rx="3" fill="#15215f"></rect><rect x="460" y="70" width="16" height="16" rx="3" fill="#15215f"></rect><rect x="460" y="90" width="16" height="16" rx="3" fill="#15215f"></rect><rect x="460" y="110" width="16" height="16" rx="3" fill="#15215f"></rect><rect x="460" y="130" width="16" height="16" rx="3" fill="#15215f"></rect><rect x="460" y="150" width="16" height="16" rx="3" fill="#15215f"></rect><rect x="460" y="170" width="16" height="16" rx="3" fill="#15215f"></rect><rect x="460" y="190" width="16" height="16" rx="3" fill="#15215f"></rect><rect x="480" y="70" width="16" height="16" rx="3" fill="#1f3d92"></rect><rect x="480" y="90" width="16" height="16" rx="3" fill="#15215f"></rect><rect x="480" y="110" width="16" height="16" rx="3" fill="#15215f"></rect><rect x="480" y="130" width="16" height="16" rx="3" fill="#15215f"></rect><rect x="480" y="150" width="16" height="16" rx="3" fill="#15215f"></rect><rect x="480" y="170" width="16" height="16" rx="3" fill="#15215f"></rect><rect x="480" y="190" width="16" height="16" rx="3" fill="#15215f"></rect><rect x="500" y="70" width="16" height="16" rx="3" fill="#15215f"></rect><rect x="500" y="90" width="16" height="16" rx="3" fill="#15215f"></rect><rect x="500" y="110" width="16" height="16" rx="3" fill="#15215f"></rect><rect x="500" y="130" width="16" height="16" rx="3" fill="#15215f"></rect><rect x="500" y="150" width="16" height="16" rx="3" fill="#15215f"></rect><rect x="500" y="170" width="16" height="16" rx="3" fill="#1f3d92"></rect><rect x="500" y="190" width="16" height="16" rx="3" fill="#1f3d92"></rect><rect x="520" y="70" width="16" height="16" rx="3" fill="#1f3d92"></rect><rect x="520" y="90" width="16" height="16" rx="3" fill="#15215f"></rect><rect x="520" y="110" width="16" height="16" rx="3" fill="#15215f"></rect><rect x="520" y="130" width="16" height="16" rx="3" fill="#15215f"></rect><rect x="520" y="150" width="16" height="16" rx="3" fill="#15215f"></rect><rect x="520" y="170" width="16" height="16" rx="3" fill="#15215f"></rect><rect x="520" y="190" width="16" height="16" rx="3" fill="#15215f"></rect><rect x="540" y="70" width="16" height="16" rx="3" fill="#15215f"></rect><rect x="540" y="90" width="16" height="16" rx="3" fill="#15215f"></rect><rect x="540" y="110" width="16" height="16" rx="3" fill="#15215f"></rect><rect x="540" y="130" width="16" height="16" rx="3" fill="#15215f"></rect><rect x="540" y="150" width="16" height="16" rx="3" fill="#15215f"></rect><rect x="540" y="170" width="16" height="16" rx="3" fill="#15215f"></rect><rect x="540" y="190" width="16" height="16" rx="3" fill="#15215f"></rect><rect x="560" y="70" width="16" height="16" rx="3" fill="#15215f"></rect><rect x="560" y="90" width="16" height="16" rx="3" fill="#15215f"></rect><rect x="560" y="110" width="16" height="16" rx="3" fill="#15215f"></rect><rect x="560" y="130" width="16" height="16" rx="3" fill="#15215f"></rect><rect x="560" y="150" width="16" height="16" rx="3" fill="#15215f"></rect><rect x="560" y="170" width="16" height="16" rx="3" fill="#15215f"></rect><rect x="560" y="190" width="16" height="16" rx="3" fill="#15215f"></rect><rect x="580" y="70" width="16" height="16" rx="3" fill="#15215f"></rect><rect x="580" y="90" width="16" height="16" rx="3" fill="#15215f"></rect><rect x="580" y="110" width="16" height="16" rx="3" fill="#15215f"></rect><rect x="580" y="130" width="16" height="16" rx="3" fill="#15215f"></rect><rect x="580" y="150" width="16" height="16" rx="3" fill="#15215f"></rect><rect x="580" y="170" width="16" height="16" rx="3" fill="#15215f"></rect><rect x="580" y="190" width="16" height="16" rx="3" fill="#15215f"></rect><rect x="600" y="70" width="16" height="16" rx="3" fill="#15215f"></rect><rect x="600" y="90" width="16" height="16" rx="3" fill="#15215f"></rect><rect x="600" y="110" width="16" height="16" rx="3" fill="#15215f"></rect><rect x="600" y="130" width="16" height="16" rx="3" fill="#15215f"></rect><rect x="600" y="150" width="16" height="16" rx="3" fill="#15215f"></rect><rect x="600" y="170" width="16" height="16" rx="3" fill="#15215f"></rect><rect x="600" y="190" width="16" height="16" rx="3" fill="#15215f"></rect><rect x="620" y="70" width="16" height="16" rx="3" fill="#15215f"></rect><rect x="620" y="90" width="16" height="16" rx="3" fill="#15215f"></rect><rect x="620" y="110" width="16" height="16" rx="3" fill="#15215f"></rect><rect x="620" y="130" width="16" height="16" rx="3" fill="#15215f"></rect><rect x="620" y="150" width="16" height="16" rx="3" fill="#15215f"></rect><rect x="620" y="170" width="16" height="16" rx="3" fill="#15215f"></rect><rect x="620" y="190" width="16" height="16" rx="3" fill="#15215f"></rect><rect x="640" y="70" width="16" height="16" rx="3" fill="#15215f"></rect><rect x="640" y="90" width="16" height="16" rx="3" fill="#15215f"></rect><rect x="640" y="110" width="16" height="16" rx="3" fill="#15215f"></rect><rect x="640" y="130" width="16" height="16" rx="3" fill="#15215f"></rect><rect x="640" y="150" width="16" height="16" rx="3" fill="#15215f"></rect><rect x="640" y="170" width="16" height="16" rx="3" fill="#15215f"></rect><rect x="640" y="190" width="16" height="16" rx="3" fill="#15215f"></rect><rect x="660" y="70" width="16" height="16" rx="3" fill="#15215f"></rect><rect x="660" y="90" width="16" height="16" rx="3" fill="#15215f"></rect><rect x="660" y="110" width="16" height="16" rx="3" fill="#15215f"></rect><rect x="660" y="130" width="16" height="16" rx="3" fill="#15215f"></rect><rect x="660" y="150" width="16" height="16" rx="3" fill="#15215f"></rect><rect x="660" y="170" width="16" height="16" rx="3" fill="#15215f"></rect><rect x="660" y="190" width="16" height="16" rx="3" fill="#15215f"></rect><rect x="680" y="70" width="16" height="16" rx="3" fill="#15215f"></rect><rect x="680" y="90" width="16" height="16" rx="3" fill="#15215f"></rect><rect x="680" y="110" width="16" height="16" rx="3" fill="#15215f"></rect><rect x="680" y="130" width="16" height="16" rx="3" fill="#15215f"></rect><rect x="680" y="150" width="16" height="16" rx="3" fill="#15215f"></rect><rect x="680" y="170" width="16" height="16" rx="3" fill="#15215f"></rect><rect x="680" y="190" width="16" height="16" rx="3" fill="#15215f"></rect><rect x="700" y="70" width="16" height="16" rx="3" fill="#15215f"></rect><rect x="700" y="90" width="16" height="16" rx="3" fill="#15215f"></rect><rect x="700" y="110" width="16" height="16" rx="3" fill="#15215f"></rect><rect x="700" y="130" width="16" height="16" rx="3" fill="#15215f"></rect><rect x="700" y="150" width="16" height="16" rx="3" fill="#15215f"></rect><rect x="700" y="170" width="16" height="16" rx="3" fill="#15215f"></rect><rect x="700" y="190" width="16" height="16" rx="3" fill="#15215f"></rect><rect x="720" y="70" width="16" height="16" rx="3" fill="#15215f"></rect><rect x="720" y="90" width="16" height="16" rx="3" fill="#15215f"></rect><rect x="720" y="110" width="16" height="16" rx="3" fill="#15215f"></rect><rect x="720" y="130" width="16" height="16" rx="3" fill="#15215f"></rect><rect x="720" y="150" width="16" height="16" rx="3" fill="#15215f"></rect><rect x="720" y="170" width="16" height="16" rx="3" fill="#15215f"></rect><rect x="720" y="190" width="16" height="16" rx="3" fill="#15215f"></rect><rect x="740" y="70" width="16" height="16" rx="3" fill="#15215f"></rect><rect x="740" y="90" width="16" height="16" rx="3" fill="#15215f"></rect><rect x="740" y="110" width="16" height="16" rx="3" fill="#15215f"></rect><rect x="740" y="130" width="16" height="16" rx="3" fill="#15215f"></rect><rect x="740" y="150" width="16" height="16" rx="3" fill="#15215f"></rect><rect x="740" y="170" width="16" height="16" rx="3" fill="#15215f"></rect><rect x="740" y="190" width="16" height="16" rx="3" fill="#15215f"></rect><rect x="760" y="70" width="16" height="16" rx="3" fill="#15215f"></rect><rect x="760" y="90" width="16" height="16" rx="3" fill="#15215f"></rect><rect x="760" y="110" width="16" height="16" rx="3" fill="#15215f"></rect><rect x="760" y="130" width="16" height="16" rx="3" fill="#15215f"></rect><rect x="760" y="150" width="16" height="16" rx="3" fill="#15215f"></rect><rect x="760" y="170" width="16" height="16" rx="3" fill="#15215f"></rect><rect x="760" y="190" width="16" height="16" rx="3" fill="#15215f"></rect><rect x="780" y="70" width="16" height="16" rx="3" fill="#15215f"></rect><rect x="780" y="90" width="16" height="16" rx="3" fill="#15215f"></rect><rect x="780" y="110" width="16" height="16" rx="3" fill="#15215f"></rect><rect x="780" y="130" width="16" height="16" rx="3" fill="#15215f"></rect><rect x="780" y="150" width="16" height="16" rx="3" fill="#15215f"></rect><rect x="780" y="170" width="16" height="16" rx="3" fill="#15215f"></rect><rect x="780" y="190" width="16" height="16" rx="3" fill="#15215f"></rect><rect x="800" y="70" width="16" height="16" rx="3" fill="#15215f"></rect><rect x="800" y="90" width="16" height="16" rx="3" fill="#15215f"></rect><rect x="800" y="110" width="16" height="16" rx="3" fill="#15215f"></rect><rect x="800" y="130" width="16" height="16" rx="3" fill="#15215f"></rect><rect x="800" y="150" width="16" height="16" rx="3" fill="#15215f"></rect><rect x="800" y="170" width="16" height="16" rx="3" fill="#15215f"></rect><rect x="800" y="190" width="16" height="16" rx="3" fill="#15215f"></rect><rect x="820" y="70" width="16" height="16" rx="3" fill="#15215f"></rect><rect x="820" y="90" width="16" height="16" rx="3" fill="#15215f"></rect><rect x="820" y="110" width="16" height="16" rx="3" fill="#15215f"></rect><rect x="820" y="130" width="16" height="16" rx="3" fill="#15215f"></rect><rect x="820" y="150" width="16" height="16" rx="3" fill="#15215f"></rect><rect x="820" y="170" width="16" height="16" rx="3" fill="#15215f"></rect><rect x="820" y="190" width="16" height="16" rx="3" fill="#15215f"></rect><rect x="840" y="70" width="16" height="16" rx="3" fill="#15215f"></rect><rect x="840" y="90" width="16" height="16" rx="3" fill="#15215f"></rect><rect x="840" y="110" width="16" height="16" rx="3" fill="#1f3d92"></rect><rect x="840" y="130" width="16" height="16" rx="3" fill="#15215f"></rect><rect x="840" y="150" width="16" height="16" rx="3" fill="#15215f"></rect><rect x="840" y="170" width="16" height="16" rx="3" fill="#15215f"></rect><rect x="840" y="190" width="16" height="16" rx="3" fill="#15215f"></rect><rect x="860" y="70" width="16" height="16" rx="3" fill="#1f3d92"></rect><rect x="860" y="90" width="16" height="16" rx="3" fill="#15215f"></rect><rect x="860" y="110" width="16" height="16" rx="3" fill="#15215f"></rect><rect x="860" y="130" width="16" height="16" rx="3" fill="#15215f"></rect><rect x="860" y="150" width="16" height="16" rx="3" fill="#15215f"></rect><rect x="860" y="170" width="16" height="16" rx="3" fill="#15215f"></rect><rect x="860" y="190" width="16" height="16" rx="3" fill="#15215f"></rect><rect x="880" y="70" width="16" height="16" rx="3" fill="#15215f"></rect><rect x="880" y="90" width="16" height="16" rx="3" fill="#15215f"></rect><rect x="880" y="110" width="16" height="16" rx="3" fill="#15215f"></rect><rect x="880" y="130" width="16" height="16" rx="3" fill="#15215f"></rect><rect x="880" y="150" width="16" height="16" rx="3" fill="#15215f"></rect><rect x="880" y="170" width="16" height="16" rx="3" fill="#15215f"></rect><rect x="880" y="190" width="16" height="16" rx="3" fill="#15215f"></rect><rect x="900" y="70" width="16" height="16" rx="3" fill="#15215f"></rect><rect x="900" y="90" width="16" height="16" rx="3" fill="#15215f"></rect><rect x="900" y="110" width="16" height="16" rx="3" fill="#15215f"></rect><rect x="900" y="130" width="16" height="16" rx="3" fill="#15215f"></rect><rect x="900" y="150" width="16" height="16" rx="3" fill="#15215f"></rect><rect x="900" y="170" width="16" height="16" rx="3" fill="#15215f"></rect><rect x="900" y="190" width="16" height="16" rx="3" fill="#15215f"></rect><rect x="920" y="70" width="16" height="16" rx="3" fill="#15215f"></rect><rect x="920" y="90" width="16" height="16" rx="3" fill="#15215f"></rect><rect x="920" y="110" width="16" height="16" rx="3" fill="#15215f"></rect><rect x="920" y="130" width="16" height="16" rx="3" fill="#15215f"></rect><rect x="920" y="150" width="16" height="16" rx="3" fill="#15215f"></rect><rect x="920" y="170" width="16" height="16" rx="3" fill="#15215f"></rect><rect x="920" y="190" width="16" height="16" rx="3" fill="#15215f"></rect><rect x="940" y="70" width="16" height="16" rx="3" fill="#15215f"></rect><rect x="940" y="90" width="16" height="16" rx="3" fill="#15215f"></rect><rect x="940" y="110" width="16" height="16" rx="3" fill="#15215f"></rect><rect x="940" y="130" width="16" height="16" rx="3" fill="#15215f"></rect><rect x="940" y="150" width="16" height="16" rx="3" fill="#15215f"></rect><rect x="940" y="170" width="16" height="16" rx="3" fill="#15215f"></rect><rect x="940" y="190" width="16" height="16" rx="3" fill="#ffffff"><animate attributeName="opacity" values="1;.35;1" dur="2.3s" begin="1.6s" repeatCount="indefinite"/></rect><g clip-path="url(#grid)"><rect x="-120" y="66" width="120" height="156" fill="url(#wave)"><animate attributeName="x" values="-120;1000" dur="6s" repeatCount="indefinite"/></rect></g></svg>